<svg xmlns="http://www.w3.org/2000/svg"  viewBox="0 0 64 64" width="64px" height="64px"><linearGradient id="QRFiPhsB1YH_ZgSpFnrGea" x1="34" x2="34" y1="5.875" y2="53.579" gradientUnits="userSpaceOnUse" spreadMethod="reflect"><stop offset="0" stop-color="#1a6dff"/><stop offset="1" stop-color="#C5DDE8"/></linearGradient><path fill="url(#QRFiPhsB1YH_ZgSpFnrGea)" d="M58,18.299C58,11.518,52.393,6,45.5,6c-3.64,0-6.912,1.549-9.198,4H14.5 c-2.481,0-4.5,2.019-4.5,4.5v34.999c0,0,0,0.001,0,0.001c0,0.002,0,0.003,0,0.005C10.004,51.983,12.021,54,14.5,54h34.999 C51.98,54,54,51.981,54,49.5V28.141c0-0.108-0.03-0.207-0.061-0.305C56.094,25.007,58,22.224,58,18.299z M46.599,41.579 c0.374-0.38,0.487-0.922,0.547-1.221c0.024-0.123,0.051-0.257,0.089-0.4c1.093-4.128,2.93-7.058,4.766-9.558V46.98L46.599,41.579z M43.234,38.214l-6.219-6.218l1.823-1.815C40.458,32.363,42.091,34.867,43.234,38.214z M45.5,8C51.29,8,56,12.62,56,18.299 c0,3.578-1.853,5.987-4.197,9.039c-2.254,2.933-4.796,6.24-6.303,11.393c-1.507-5.152-4.049-8.46-6.303-11.393 C36.853,24.286,35,21.877,35,18.299C35,12.62,39.71,8,45.5,8z M14.5,12h20.284C33.659,13.845,33,15.995,33,18.299 c0,2.324,0.679,4.242,1.67,6.011L12,47.077V14.5C12,13.121,13.121,12,14.5,12z M12.038,49.875l23.721-23.822 c0.581,0.841,1.21,1.667,1.852,2.504c0.003,0.004,0.007,0.009,0.01,0.013L14.125,51.962C13.049,51.798,12.202,50.951,12.038,49.875z M31.986,37.003L47.075,52H16.922L31.986,37.003z M49.873,51.962l-16.47-16.37l2.195-2.185l16.374,16.373 C51.845,50.901,50.982,51.794,49.873,51.962z"/><linearGradient id="QRFiPhsB1YH_ZgSpFnrGeb" x1="45.5" x2="45.5" y1="5.875" y2="53.579" gradientUnits="userSpaceOnUse" spreadMethod="reflect"><stop offset="0" stop-color="#1a6dff"/><stop offset="1" stop-color="#c822ff"/></linearGradient><path fill="url(#QRFiPhsB1YH_ZgSpFnrGeb)" d="M45.5,23c2.481,0,4.5-2.019,4.5-4.5S47.981,14,45.5,14S41,16.019,41,18.5S43.019,23,45.5,23z M45.5,16c1.379,0,2.5,1.121,2.5,2.5S46.879,21,45.5,21S43,19.879,43,18.5S44.121,16,45.5,16z"/><linearGradient id="QRFiPhsB1YH_ZgSpFnrGec" x1="20.996" x2="20.996" y1="15" y2="27.222" gradientUnits="userSpaceOnUse" spreadMethod="reflect"><stop offset="0" stop-color="#6dc7ff"/><stop offset="1" stop-color="C5DDE8"/></linearGradient><path fill="url(#QRFiPhsB1YH_ZgSpFnrGec)" d="M21.112,20.035v2.335h3.327c-0.435,1.415-1.617,2.427-3.327,2.427 c-2.036,0-3.687-1.65-3.687-3.686s1.651-3.686,3.687-3.686c0.916,0,1.751,0.336,2.396,0.888l1.72-1.719 C24.142,15.604,22.698,15,21.112,15C17.737,15,15,17.736,15,21.111s2.737,6.111,6.112,6.111c5.344,0,6.263-4.797,5.761-7.179 L21.112,20.035z"/></svg>